<?xml version="1.0" standalone="no"?>
<!DOCTYPE svg PUBLIC "-//W3C//DTD SVG 1.1//EN" "http://www.w3.org/Graphics/SVG/1.1/DTD/svg11.dtd" >
<svg>
<metadata>
Created by FontForge 20090914 at Tue Apr 23 08:00:57 2013
 By www-data
Topaz is Copyright &#194;&#169; AmigaInc. Truetype version is Copyright &#194;&#169; 2009 by dMG of Trueschool and Divine Stylers.
</metadata>
<defs>
<font id="Topaza500a1000a2000" horiz-adv-x="800" >
  <font-face 
    font-family="Topaz a500a1000a2000"
    font-weight="400"
    font-stretch="normal"
    units-per-em="1600"
    panose-1="2 0 5 9 0 0 0 2 0 3"
    ascent="1600"
    descent="0"
    x-height="1200"
    cap-height="1600"
    bbox="0 0 800 1600"
    underline-thickness="100"
    underline-position="100"
    unicode-range="U+0002-U+00FF"
  />
<missing-glyph 
 />
    <glyph glyph-name=".notdef" 
 />
    <glyph glyph-name="NUL" 
 />
    <glyph glyph-name="NUL" 
 />
    <glyph glyph-name="STX" 
 />
    <glyph glyph-name="HT" unicode="&#x9;" 
 />
    <glyph glyph-name="LF" unicode="&#xa;" 
 />
    <glyph glyph-name="nonmarkingreturn" unicode="&#xd;" 
 />
    <glyph glyph-name="space" unicode=" " 
 />
    <glyph glyph-name="exclam" unicode="!" 
d="M200 1400h100v200h200v-200h100v-400h-100v-400h-200v400h-100v400zM300 400h200v-200h-200v200z" />
    <glyph glyph-name="quotedbl" unicode="&#x22;" 
d="M100 1600h200v-400h-200v400zM400 1600h200v-400h-200v400z" />
    <glyph glyph-name="numbersign" unicode="#" 
d="M0 1200h100v400h200v-400h100v400h200v-400h100v-200h-100v-200h100v-200h-100v-400h-200v400h-100v-400h-200v400h-100v200h100v200h-100v200zM400 800v200h-100v-200h100z" />
    <glyph glyph-name="dollar" unicode="$" 
d="M100 600h400v200h-300v200h-100v200h100v200h100v200h200v-200h200v-200h-400v-200h300v-200h100v-200h-100v-200h-100v-200h-200v200h-200v200z" />
    <glyph glyph-name="percent" unicode="%" 
d="M500 1400h200v-200h-100v-200h-100v-200h-100v-200h-100v-200h-100v-200h-200v200h100v200h100v200h100v200h100v200h100v200zM500 600h200v-400h-200v400zM0 1400h200v-400h-200v400z" />
    <glyph glyph-name="ampersand" unicode="&#x26;" 
d="M100 1400h100v200h300v-200h100v-200h-100v-200h200v-200h-100v-400h100v-200h-200v200h-100v-200h-300v200h-100v400h100v600zM300 800h-100v-400h200v200h-100v200zM400 1400h-100v-400h100v400zM400 800h100v200h-100v-200z" />
    <glyph glyph-name="quotesingle" unicode="'" 
d="M200 1200h100v400h200v-400h-100v-200h-200v200z" />
    <glyph glyph-name="parenleft" unicode="(" 
d="M200 1200h100v200h100v200h200v-200h-100v-200h-100v-600h100v-200h100v-200h-200v200h-100v200h-100v600z" />
    <glyph glyph-name="parenright" unicode=")" 
d="M400 1200h-100v200h-100v200h200v-200h100v-200h100v-600h-100v-200h-100v-200h-200v200h100v200h100v600z" />
    <glyph glyph-name="asterisk" unicode="*" 
d="M100 1400h200v-200h200v200h200v-200h-100v-200h200v-200h-200v-200h100v-200h-200v200h-200v-200h-200v200h100v200h-200v200h200v200h-100v200z" />
    <glyph glyph-name="plus" unicode="+" 
d="M100 1000h200v400h200v-400h200v-200h-200v-400h-200v400h-200v200z" />
    <glyph glyph-name="comma" unicode="," 
d="M200 200h100v400h200v-400h-100v-200h-200v200z" />
    <glyph glyph-name="hyphen" unicode="-" 
d="M100 1000h600v-200h-600v200z" />
    <glyph glyph-name="period" unicode="." 
d="M300 600h200v-400h-200v400z" />
    <glyph glyph-name="slash" unicode="/" 
d="M0 400h100v200h100v200h100v200h100v200h100v200h100v200h200v-200h-100v-200h-100v-200h-100v-200h-100v-200h-100v-200h-100v-200h-200v200z" />
    <glyph glyph-name="zero" unicode="0" 
d="M100 1400h100v200h400v-200h100v-1000h-100v-200h-400v200h-100v1000zM300 1000h100v200h100v200h-200v-400zM300 400h200v400h-100v-200h-100v-200z" />
    <glyph glyph-name="one" unicode="1" 
d="M200 1400h100v200h200v-1200h200v-200h-600v200h200v800h-100v200z" />
    <glyph glyph-name="two" unicode="2" 
d="M500 600h200v-400h-600v400h100v200h100v200h200v400h-200v-200h-200v200h100v200h400v-200h100v-400h-100v-200h-200v-200h-100v-200h200v200z" />
    <glyph glyph-name="three" unicode="3" 
d="M100 600h200v-200h200v400h-200v200h200v400h-200v-200h-200v200h100v200h400v-200h100v-400h-100v-200h100v-400h-100v-200h-400v200h-100v200z" />
    <glyph glyph-name="four" unicode="4" 
d="M100 1000v200h100v200h100v200h300v-800h100v-200h-100v-200h100v-200h-400v200h100v200h-400v400h100zM400 1200h-100v-200h-100v-200h200v400z" />
    <glyph glyph-name="five" unicode="5" 
d="M100 600h200v-200h200v600h-400v600h600v-200h-400v-200h300v-200h100v-600h-100v-200h-400v200h-100v200z" />
    <glyph glyph-name="six" unicode="6" 
d="M300 1000h300v-200h100v-400h-100v-200h-400v200h-100v800h100v200h100v200h300v-200h-200v-200h-100v-200zM300 400h200v400h-200v-400z" />
    <glyph glyph-name="seven" unicode="7" 
d="M300 800h100v200h100v400h-200v-200h-200v400h600v-600h-100v-200h-100v-600h-200v600z" />
    <glyph glyph-name="eight" unicode="8" 
d="M200 400h-100v400h100v200h-100v400h100v200h400v-200h100v-400h-100v-200h100v-400h-100v-200h-400v200zM500 1400h-200v-400h200v400zM500 800h-200v-400h200v400z" />
    <glyph glyph-name="nine" unicode="9" 
d="M200 400h200v200h100v200h-300v200h-100v400h100v200h400v-200h100v-800h-100v-200h-100v-200h-300v200zM300 1000h200v400h-200v-400z" />
    <glyph glyph-name="colon" unicode=":" 
d="M300 1400h200v-400h-200v400zM300 600h200v-400h-200v400z" />
    <glyph glyph-name="semicolon" unicode=";" 
d="M200 200h100v400h200v-400h-100v-200h-200v200zM300 1400h200v-400h-200v400z" />
    <glyph glyph-name="less" unicode="&#x3c;" 
d="M300 600h-100v200h-100v200h100v200h100v200h100v200h200v-200h-100v-200h-100v-200h-100v-200h100v-200h100v-200h100v-200h-200v200h-100v200z" />
    <glyph glyph-name="equal" unicode="=" 
d="M100 1200h600v-200h-600v200zM100 600h600v-200h-600v200z" />
    <glyph glyph-name="greater" unicode="&#x3e;" 
d="M200 400h100v200h100v200h100v200h-100v200h-100v200h-100v200h200v-200h100v-200h100v-200h100v-200h-100v-200h-100v-200h-100v-200h-200v200z" />
    <glyph glyph-name="question" unicode="?" 
d="M300 800h100v200h100v400h-200v-200h-200v200h100v200h400v-200h100v-400h-100v-200h-100v-200h-200v200zM300 400h200v-200h-200v200z" />
    <glyph glyph-name="at" unicode="@" 
d="M300 1200h200v200h-300v-1000h300v-200h-400v200h-100v1000h100v200h500v-200h100v-800h-400v600z" />
    <glyph glyph-name="A" unicode="A" 
d="M600 600h-400v-400h-200v400h100v400h100v400h100v200h200v-200h100v-400h100v-400h100v-400h-200v400zM500 1000h-200v-200h200v200z" />
    <glyph glyph-name="B" unicode="B" 
d="M600 1000v-200h100v-400h-100v-200h-600v200h100v1000h-100v200h600v-200h100v-400h-100zM500 1400h-200v-400h200v400zM300 400h200v400h-200v-400z" />
    <glyph glyph-name="C" unicode="C" 
d="M0 1200h100v200h100v200h400v-200h100v-200h-200v200h-200v-200h-100v-600h100v-200h200v200h200v-200h-100v-200h-400v200h-100v200h-100v600z" />
    <glyph glyph-name="D" unicode="D" 
d="M0 1600h500v-200h100v-200h100v-600h-100v-200h-100v-200h-500v200h100v1000h-100v200zM300 1400v-1000h100v200h100v600h-100v200h-100z" />
    <glyph glyph-name="E" unicode="E" 
d="M300 400h200v200h200v-400h-700v200h100v1000h-100v200h700v-400h-200v200h-200v-400h200v-200h-200v-400z" />
    <glyph glyph-name="F" unicode="F" 
d="M300 400h100v-200h-400v200h100v1000h-100v200h700v-400h-200v200h-200v-400h200v-200h-200v-400z" />
    <glyph glyph-name="G" unicode="G" 
d="M0 1200h100v200h100v200h400v-200h100v-200h-200v200h-200v-200h-100v-600h100v-200h200v400h-100v200h300v-800h-500v200h-100v200h-100v600z" />
    <glyph glyph-name="H" unicode="H" 
d="M300 200h-200v1400h200v-600h200v600h200v-1400h-200v600h-200v-600z" />
    <glyph glyph-name="I" unicode="I" 
d="M100 1600h600v-200h-200v-1000h200v-200h-600v200h200v1000h-200v200z" />
    <glyph glyph-name="J" unicode="J" 
d="M100 800h200v-400h200v1000h-100v200h300v-1200h-100v-200h-400v200h-100v400z" />
    <glyph glyph-name="K" unicode="K" 
d="M500 600h-100v200h-100v-600h-300v200h100v1000h-100v200h300v-600h100v200h100v400h200v-400h-100v-200h-100v-200h100v-200h100v-400h-200v400z" />
    <glyph glyph-name="L" unicode="L" 
d="M500 600h100v200h100v-600h-700v200h100v1000h-100v200h400v-200h-100v-1000h200v200z" />
    <glyph glyph-name="M" unicode="M" 
d="M300 800h-100v-600h-200v1400h100v-200h100v-200h100v-200h100v200h100v200h100v200h100v-1400h-200v600h-100v-200h-100v200z" />
    <glyph glyph-name="N" unicode="N" 
d="M400 800h-100v200h-100v-800h-200v1400h200v-200h100v-200h100v-200h100v600h200v-1400h-200v400h-100v200z" />
    <glyph glyph-name="O" unicode="O" 
d="M200 400h-100v200h-100v600h100v200h100v200h300v-200h100v-200h100v-600h-100v-200h-100v-200h-300v200zM400 600h100v600h-100v200h-100v-200h-100v-600h100v-200h100v200z" />
    <glyph glyph-name="P" unicode="P" 
d="M100 1400h-100v200h600v-200h100v-400h-100v-200h-300v-400h100v-200h-400v200h100v1000zM300 1400v-400h200v400h-200z" />
    <glyph glyph-name="Q" unicode="Q" 
d="M200 400h-100v200h-100v600h100v200h100v200h300v-200h100v-200h100v-600h-100v-400h100v-200h-200v200h-300v200zM400 600h100v600h-100v200h-100v-200h-100v-600h100v-200h100v200z" />
    <glyph glyph-name="R" unicode="R" 
d="M0 400h100v1000h-100v200h600v-200h100v-400h-100v-400h100v-200h100v-200h-200v200h-100v200h-100v200h-100v-600h-300v200zM300 1400v-400h200v400h-200z" />
    <glyph glyph-name="S" unicode="S" 
d="M100 600h200v-200h200v200h-100v200h-200v200h-100v400h100v200h400v-200h100v-200h-200v200h-200v-200h100v-200h100v-200h200v-400h-100v-200h-400v200h-100v200z" />
    <glyph glyph-name="T" unicode="T" 
d="M200 400h100v1000h-100v-200h-100v400h600v-400h-100v200h-100v-1000h100v-200h-400v200z" />
    <glyph glyph-name="U" unicode="U" 
d="M500 1600h200v-1400h-500v200h-100v1200h200v-1200h200v1200z" />
    <glyph glyph-name="V" unicode="V" 
d="M200 800h-100v400h-100v400h200v-400h100v-400h200v400h100v400h200v-400h-100v-400h-100v-400h-100v-200h-200v200h-100v400z" />
    <glyph glyph-name="W" unicode="W" 
d="M300 400h-100v-200h-200v1400h200v-800h100v200h100v-200h100v800h200v-1400h-200v200h-100v200h-100v-200z" />
    <glyph glyph-name="X" unicode="X" 
d="M600 400h-100v200h-200v-200h-100v-200h-200v200h100v200h100v200h100v200h-100v200h-100v200h-100v200h200v-200h100v-200h200v200h100v200h200v-200h-100v-200h-100v-200h-100v-200h100v-200h100v-200h100v-200h-200v200z" />
    <glyph glyph-name="Y" unicode="Y" 
d="M200 1000h-100v200h-100v400h200v-400h100v-200h200v200h100v400h200v-400h-100v-200h-100v-200h-100v-400h100v-200h-400v200h100v400h-100v200z" />
    <glyph glyph-name="Z" unicode="Z" 
d="M600 800h100v-600h-700v200h100v200h100v200h100v200h100v200h100v200h-300v-200h-100v-200h-100v600h700v-400h-100v-200h-100v-200h-100v-200h-100v-200h200v200h100v200z" />
    <glyph glyph-name="bracketleft" unicode="[" 
d="M200 1600h400v-200h-200v-1000h200v-200h-400v1400z" />
    <glyph glyph-name="backslash" unicode="\" 
d="M600 400h-100v200h-100v200h-100v200h-100v200h-100v200h-100v200h200v-200h100v-200h100v-200h100v-200h100v-200h100v-200h100v-200h-200v200z" />
    <glyph glyph-name="bracketright" unicode="]" 
d="M200 1600h400v-1400h-400v200h200v1000h-200v200z" />
    <glyph glyph-name="asciicircum" unicode="^" 
d="M500 991h-100v200h-100v-200h-100v-191h-200v191h100v200h100v200h100v200h100v-200h100v-200h100v-200h100v-200h-200v200z" />
    <glyph glyph-name="underscore" unicode="_" 
d="M0 200h700v-200h-700v200z" />
    <glyph glyph-name="grave" unicode="`" 
d="M300 1600h200v-400h100v-200h-200v200h-100v400z" />
    <glyph glyph-name="a" unicode="a" 
d="M200 1200h400v-200h100v-600h100v-200h-200v200h-100v200h-200v200h200v200h-300v200zM100 600h200v-200h200v-200h-300v200h-100v200z" />
    <glyph glyph-name="b" unicode="b" 
d="M300 400h200v600h-100v200h200v-200h100v-600h-100v-200h-400v200h-100v1000h-100v200h300v-600h100v-200h-100v-400z" />
    <glyph glyph-name="c" unicode="c" 
d="M200 1200h400v-200h100v-200h-200v200h-200v-600h200v200h200v-200h-100v-200h-400v200h-100v600h100v200z" />
    <glyph glyph-name="d" unicode="d" 
d="M100 1000h100v200h200v-200h100v400h-100v200h300v-1200h100v-200h-200v200h-100v400h-100v200h-100v-600h200v-200h-300v200h-100v600z" />
    <glyph glyph-name="e" unicode="e" 
d="M200 1200h400v-200h100v-400h-400v-200h300v-200h-400v200h-100v600h100v200zM500 1000h-200v-200h200v200z" />
    <glyph glyph-name="f" unicode="f" 
d="M100 1000h100v400h100v200h300v-200h100v-200h-200v200h-100v-400h100v-200h-100v-400h100v-200h-400v200h100v400h-100v200z" />
    <glyph glyph-name="g" unicode="g" 
d="M600 1200h200v-200h-100v-400h-100v-200h100v-200h-100v-200h-500v200h-100v200h200v-200h300v200h-300v200h-100v400h100v200h300v-200h100v200zM500 1000h-200v-400h200v400z" />
    <glyph glyph-name="h" unicode="h" 
d="M300 200h-300v200h100v1000h-100v200h300v-600h100v-200h-100v-600zM400 1200h200v-200h100v-800h-200v800h-100v200z" />
    <glyph glyph-name="i" unicode="i" 
d="M200 1200h300v-800h100v-200h-400v200h100v600h-100v200zM300 1600h200v-200h-200v200z" />
    <glyph glyph-name="j" unicode="j" 
d="M100 400h200v-200h200v1000h200v-1000h-100v-200h-400v200h-100v200zM500 1600h200v-200h-200v200z" />
    <glyph glyph-name="k" unicode="k" 
d="M400 1000h100v200h200v-200h-100v-200h-100v-200h100v-200h100v-200h-200v200h-100v200h-100v-400h-300v200h100v1000h-100v200h300v-800h100v200z" />
    <glyph glyph-name="l" unicode="l" 
d="M200 1600h300v-1200h100v-200h-400v200h100v1000h-100v200z" />
    <glyph glyph-name="m" unicode="m" 
d="M400 800h-100v-600h-200v1000h200v-200h100v-200h100v-200h-100v200zM500 1200h200v-200h100v-800h-200v600h-100v400z" />
    <glyph glyph-name="n" unicode="n" 
d="M300 200h-200v1000h500v-200h100v-800h-200v800h-200v-800z" />
    <glyph glyph-name="o" unicode="o" 
d="M100 1000h100v200h400v-200h100v-600h-100v-200h-400v200h-100v600zM500 1000h-200v-600h200v600z" />
    <glyph glyph-name="p" unicode="p" 
d="M300 1200h300v-200h100v-400h-100v-200h-300v-200h100v-200h-400v200h100v800h-100v200h200v-200h100v200zM300 600h200v400h-200v-400z" />
    <glyph glyph-name="q" unicode="q" 
d="M500 400h-300v200h-100v400h100v200h400v-200h100v-800h100v-200h-300v400zM500 1000h-200v-400h200v400zM700 1200h100v-200h-100v200z" />
    <glyph glyph-name="r" unicode="r" 
d="M300 400h100v-200h-400v200h100v600h-100v200h300v-200h100v-200h-100v-400zM400 1200h200v-200h100v-400h-200v400h-100v200z" />
    <glyph glyph-name="s" unicode="s" 
d="M200 1200h500v-200h-400v-200h300v-200h100v-200h-100v-200h-500v200h400v200h-300v200h-100v200h100v200z" />
    <glyph glyph-name="t" unicode="t" 
d="M600 200h-200v200h-100v600h-100v200h100v200h82v200h118v-400h200v-200h-200v-600h100v-200zM600 600h100v-200h-100v200z" />
    <glyph glyph-name="u" unicode="u" 
d="M100 1200h200v-800h200v-200h-300v200h-100v800zM500 1200h200v-800h100v-200h-200v200h-100v800z" />
    <glyph glyph-name="v" unicode="v" 
d="M500 1200h200v-600h-100v-200h-100v-200h-200v200h-100v200h-100v600h200v-600h200v600z" />
    <glyph glyph-name="w" unicode="w" 
d="M400 1000h100v-400h100v600h200v-600h-100v-400h-200v400h-100v400zM100 1200h200v-600h100v-400h-200v400h-100v600z" />
    <glyph glyph-name="x" unicode="x" 
d="M100 1200h200v-200h100v-200h100v200h100v200h200v-200h-100v-200h-100v-200h100v-200h100v-200h-200v200h-100v200h-100v-200h-100v-200h-200v200h100v200h100v200h-100v200h-100v200z" />
    <glyph glyph-name="y" unicode="y" 
d="M500 1200h200v-600h-100v-200h-100v-200h-100v-200h-300v200h200v200h-100v200h-100v600h200v-600h200v600z" />
    <glyph glyph-name="z" unicode="z" 
d="M100 1200h600v-200h-100v-200h-100v-200h-81v-200h181v200h100v-400h-600v200h100v200h100v200h100v200h-200v-200h-100v400z" />
    <glyph glyph-name="braceleft" unicode="{" 
d="M400 400h-100v400h-200v200h200v400h100v200h300v-200h-200v-400h-100v-200h100v-400h200v-200h-300v200z" />
    <glyph glyph-name="bar" unicode="|" 
d="M300 1600h200v-1400h-200v1400z" />
    <glyph glyph-name="braceright" unicode="}" 
d="M100 400h200v400h100v200h-100v400h-200v200h300v-200h100v-400h200v-200h-200v-400h-100v-200h-300v200z" />
    <glyph glyph-name="asciitilde" unicode="~" 
d="M100 1600h300v-200h200v-200h-300v200h-200v200zM600 1600h100v-200h-100v200zM0 1400h100v-200h-100v200z" />
    <glyph glyph-name="uni0080" 
d="M100 1600h600v-1400h-600v1400zM300 400h200v1000h-200v-1000z" />
    <glyph glyph-name="Break Permitted Here" 
d="M100 1600h600v-1400h-600v1400zM300 400h200v1000h-200v-1000z" />
    <glyph glyph-name="No Break Here" 
d="M100 1600h600v-1400h-600v1400zM300 400h200v1000h-200v-1000z" />
    <glyph glyph-name="Index" 
d="M100 1600h600v-1400h-600v1400zM300 400h200v1000h-200v-1000z" />
    <glyph glyph-name="Next Line" unicode="&#x85;" 
d="M100 1600h600v-1400h-600v1400zM300 400h200v1000h-200v-1000z" />
    <glyph glyph-name="Start of Selected Area" 
d="M100 1600h600v-1400h-600v1400zM300 400h200v1000h-200v-1000z" />
    <glyph glyph-name="End of Selected Area" 
d="M100 1600h600v-1400h-600v1400zM300 400h200v1000h-200v-1000z" />
    <glyph glyph-name="Character Tabulation Set" 
d="M100 1600h600v-1400h-600v1400zM300 400h200v1000h-200v-1000z" />
    <glyph glyph-name="Character Tabulation with Justification" 
d="M100 1600h600v-1400h-600v1400zM300 400h200v1000h-200v-1000z" />
    <glyph glyph-name="Line Tabulation Set" 
d="M100 1600h600v-1400h-600v1400zM300 400h200v1000h-200v-1000z" />
    <glyph glyph-name="Partial Line Forward" 
d="M100 1600h600v-1400h-600v1400zM300 400h200v1000h-200v-1000z" />
    <glyph glyph-name="Partial Line Backward" 
d="M100 1600h600v-1400h-600v1400zM300 400h200v1000h-200v-1000z" />
    <glyph glyph-name="Private Use 1" 
d="M100 1600h600v-1400h-600v1400zM300 400h200v1000h-200v-1000z" />
    <glyph glyph-name="Private Use 2" 
d="M100 1600h600v-1400h-600v1400zM300 400h200v1000h-200v-1000z" />
    <glyph glyph-name="Set Transmit State" 
d="M100 1600h600v-1400h-600v1400zM300 400h200v1000h-200v-1000z" />
    <glyph glyph-name="Cancel character" 
d="M100 1600h600v-1400h-600v1400zM300 400h200v1000h-200v-1000z" />
    <glyph glyph-name="Message Waiting" 
d="M100 1600h600v-1400h-600v1400zM300 400h200v1000h-200v-1000z" />
    <glyph glyph-name="Start of Protected Area" 
d="M100 1600h600v-1400h-600v1400zM300 400h200v1000h-200v-1000z" />
    <glyph glyph-name="End of Protected Area" 
d="M100 1600h600v-1400h-600v1400zM300 400h200v1000h-200v-1000z" />
    <glyph glyph-name="Start of String" 
d="M100 1600h600v-1400h-600v1400zM300 400h200v1000h-200v-1000z" />
    <glyph glyph-name="Single Graphic Character Introducer" 
d="M100 1600h600v-1400h-600v1400zM300 400h200v1000h-200v-1000z" />
    <glyph glyph-name="Single Character Intro Introducer" 
d="M100 1600h600v-1400h-600v1400zM300 400h200v1000h-200v-1000z" />
    <glyph glyph-name="Control Sequence Introducer" 
d="M100 1600h600v-1400h-600v1400zM300 400h200v1000h-200v-1000z" />
    <glyph glyph-name="String Terminator" 
d="M100 1600h600v-1400h-600v1400zM300 400h200v1000h-200v-1000z" />
    <glyph glyph-name="Application Program Command" 
d="M100 1600h600v-1400h-600v1400zM300 400h200v1000h-200v-1000z" />
    <glyph glyph-name="Non-breaking space" unicode="&#xa0;" 
 />
    <glyph glyph-name="exclamdown" unicode="&#xa1;" 
d="M200 800h100v400h200v-400h100v-400h-100v-200h-200v200h-100v400zM300 1600h200v-200h-200v200z" />
    <glyph glyph-name="cent" unicode="&#xa2;" 
d="M100 1200h100v200h200v200h200v-200h100v-200h-100v-400h100v-200h-100v-200h-200v200h-200v200h-100v400zM300 1200v-400h100v400h-100z" />
    <glyph glyph-name="sterling" unicode="&#xa3;" 
d="M100 1000h100v400h100v200h300v-200h100v-200h-200v200h-100v-400h100v-200h-100v-400h300v-200h-600v200h100v400h-100v200z" />
    <glyph glyph-name="currency" unicode="&#xa4;" 
d="M600 800h-400v200h-100v200h100v200h-100v200h100v-200h400v-200h100v-200h-100v-200h100v-200h-100v200zM500 1200h-200v-200h200v200zM600 1600h100v-200h-100v200zM100 800h100v-200h-100v200z" />
    <glyph glyph-name="yen" unicode="&#xa5;" 
d="M200 800h100v200h-100v200h-100v200h-100v200h200v-200h100v-200h200v200h100v200h200v-200h-100v-200h-100v-200h-100v-200h100v-200h-100v-200h100v-200h-400v200h100v200h-100v200z" />
    <glyph glyph-name="brokenbar" unicode="&#xa6;" 
d="M300 1600h200v-600h-200v600zM300 800h200v-600h-200v600z" />
    <glyph glyph-name="section" unicode="&#xa7;" 
d="M600 600h-400v200h-100v200h100v200h-100v200h100v-200h400v-200h100v-200h-100v-200h100v-200h-100v200zM200 1600h400v-200h-400v200zM200 400h400v-200h-400v200zM300 1000v-200h200v200h-200z" />
    <glyph glyph-name="dieresis" unicode="&#xa8;" 
d="M100 1600h200v-200h-200v200zM500 1600h200v-200h-200v200z" />
    <glyph glyph-name="copyright" unicode="&#xa9;" 
d="M0 1400h100v-1200h600v-200h-600v200h-100v1200zM700 1400h-600v200h600v-200h100v-1200h-100v1200zM200 1000h100v200h300v-200h-200v-400h200v-200h-300v200h-100v400z" />
    <glyph glyph-name="ordfeminine" unicode="&#xaa;" 
d="M200 1600h200v-200h100v-600h-500v400h100v-200h300v400h-200v200zM0 600h600v-200h-600v200zM100 1400h100v-200h-100v200z" />
    <glyph glyph-name="guillemotleft" unicode="&#xab;" 
d="M600 600h-100v200h-100v200h100v200h100v200h200v-200h-100v-200h-100v-200h100v-200h100v-200h-200v200zM0 1000h100v200h100v200h200v-200h-100v-200h-100v-200h100v-200h100v-200h-200v200h-100v200h-100v200z" />
    <glyph glyph-name="logicalnot" unicode="&#xac;" 
d="M200 1600h500v-400h-200v200h-300v200z" />
    <glyph glyph-name="uni00AD" unicode="&#xad;" 
d="M100 1200h600v-400h-600v400z" />
    <glyph glyph-name="registered" unicode="&#xae;" 
d="M700 1400h-600v200h600v-200h100v-1200h-100v1200zM100 200h600v-200h-600v200h-100v1200h100v-1200zM400 600h-100v-200h-100v800h300v-400h-100v-200h100v-200h-100v200z" />
    <glyph glyph-name="macron" unicode="&#xaf;" 
d="M100 1600h600v-200h-600v200z" />
    <glyph glyph-name="degree" unicode="&#xb0;" 
d="M200 1600h400v-200h100v-200h-100v-200h-400v200h-100v200h100v200zM300 1400v-200h200v200h-200z" />
    <glyph glyph-name="plusminus" unicode="&#xb1;" 
d="M100 1200h200v400h200v-400h200v-200h-200v-400h-200v400h-200v200zM100 400h600v-200h-600v200z" />
    <glyph glyph-name="twosuperior" unicode="&#xb2;" 
d="M0 800h100v200h100v200h100v200h-300v200h400v-200h100v-200h-100v-200h-100v-200h200v-200h-500v200z" />
    <glyph glyph-name="threesuperior" unicode="&#xb3;" 
d="M0 800h300v200h-100v200h100v200h-300v200h400v-200h100v-200h-100v-200h100v-200h-100v-200h-400v200z" />
    <glyph glyph-name="acute" unicode="&#xb4;" 
d="M200 1418h100v182h200v-200h-100v-200h-200v218z" />
    <glyph glyph-name="mu" unicode="&#xb5;" 
d="M600 400h-100v-200h-300v-200h-200v1200h200v-600h100v-200h100v200h100v600h200v-1000h-100v200z" />
    <glyph glyph-name="paragraph" unicode="&#xb6;" 
d="M500 1400h-100v-1200h-100v600h-200v200h-100v400h100v200h600v-200h-100v-1200h-100v1200z" />
    <glyph glyph-name="periodcentered" unicode="&#xb7;" 
d="M300 1200h200v-400h-200v400z" />
    <glyph glyph-name="cedilla" unicode="&#xb8;" 
d="M200 200h100v200h200v-200h-100v-200h-200v200z" />
    <glyph glyph-name="onesuperior" unicode="&#xb9;" 
d="M100 1400h100v200h200v-1000h-200v600h-100v200z" />
    <glyph glyph-name="ordmasculine" unicode="&#xba;" 
d="M0 600h500v-200h-500v200zM400 1000v-200h-300v200h-100v400h100v-400h300zM400 1400h-300v200h300v-200h100v-400h-100v400z" />
    <glyph glyph-name="guillemotright" unicode="&#xbb;" 
d="M0 600h100v200h100v200h-100v200h-100v200h200v-200h100v-200h100v-200h-100v-200h-100v-200h-200v200zM400 1400h200v-200h100v-200h100v-200h-100v-200h-100v-200h-200v200h100v200h100v200h-100v200h-100v200z" />
    <glyph glyph-name="onequarter" unicode="&#xbc;" 
d="M100 1400h100v200h100v-800h100v200h100v200h100v200h200v-200h-100v-200h-100v-200h-100v-200h-100v-200h-100v-200h-200v200h100v200h100v200h-100v400h-100v200zM700 800h100v-800h-100v200h-200v200h100v200h100v200z" />
    <glyph glyph-name="onehalf" unicode="&#xbd;" 
d="M600 800h-100v-200h-100v-200h-100v-200h-200v200h100v200h100v200h-100v400h-100v200h100v200h100v-800h100v200h100v200h100v200h200v-200h-100v-200h-100v-200h200v-400h-100v200h-100v200zM500 200h100v200h100v-200h100v-200h-300v200z" />
    <glyph glyph-name="threequarters" unicode="&#xbe;" 
d="M100 1200h100v200h-200v200h200v-200h100v-600h100v200h100v200h100v200h200v-200h-100v-200h-100v-200h-100v-200h-100v-200h-100v-200h-200v200h100v200h100v200h-100v200h-100v200zM700 200h-200v200h100v200h100v200h100v-800h-100v200zM0 800h200v-200h-200v200z
" />
    <glyph glyph-name="questiondown" unicode="&#xbf;" 
d="M100 800h100v200h100v200h200v-200h-100v-200h-100v-400h200v200h200v-200h-100v-200h-400v200h-100v400zM300 1600h200v-200h-200v200z" />
    <glyph glyph-name="Agrave" unicode="&#xc0;" 
d="M200 1600h200v-200h100v-200h100v-200h100v-400h100v-400h-200v400h-400v-400h-200v400h100v400h100v200h200v200h-200v200zM500 1000h-200v-200h200v200z" />
    <glyph glyph-name="Aacute" unicode="&#xc1;" 
d="M200 1200h100v200h100v-200h200v-200h100v-400h100v-400h-200v400h-400v-400h-200v400h100v400h100v200zM400 1600h200v-200h-200v200zM500 1000h-200v-200h200v200z" />
    <glyph glyph-name="Acircumflex" unicode="&#xc2;" 
d="M300 1600h200v-200h100v-400h100v-400h100v-400h-200v400h-400v-400h-200v400h100v400h100v400h100v200zM500 1000h-200v-200h200v200zM300 1200h200v200h-200v-200z" />
    <glyph glyph-name="Atilde" unicode="&#xc3;" 
d="M100 1600h300v-200h300v-200h-100v-200h100v-400h100v-400h-200v400h-400v-400h-200v400h100v400h100v200h200v200h-300v200zM500 1000h-200v-200h200v200zM700 1600h100v-200h-100v200zM0 1400h100v-200h-100v200z" />
    <glyph glyph-name="Adieresis" unicode="&#xc4;" 
d="M200 1200h100v200h200v-200h100v-200h100v-400h100v-400h-200v400h-400v-400h-200v400h100v400h100v200zM600 1600h200v-200h-200v200zM500 1000h-200v-200h200v200zM0 1600h200v-200h-200v200z" />
    <glyph glyph-name="Aring" unicode="&#xc5;" 
d="M300 1600h200v-200h200v-200h-100v-200h100v-400h100v-400h-200v400h-400v-400h-200v400h100v400h100v200h-100v200h200v200zM500 1000h-200v-200h200v200zM300 1200h200v200h-200v-200z" />
    <glyph glyph-name="AE" unicode="&#xc6;" 
d="M600 400h200v-200h-400v400h-200v-400h-200v400h100v400h100v400h100v200h500v-200h-200v-400h200v-200h-200v-400zM300 1000v-200h100v200h-100z" />
    <glyph glyph-name="Ccedilla" unicode="&#xc7;" 
d="M200 600h-100v200h-100v400h100v200h100v200h400v-200h100v-200h-200v200h-200v-200h-100v-400h100v-200h200v200h200v-200h-100v-200h-100v-200h-100v200h-200v200zM200 200h200v-200h-200v200z" />
    <glyph glyph-name="Egrave" unicode="&#xc8;" 
d="M300 400h400v-200h-700v200h100v600h-100v200h300v200h-200v200h200v-200h100v-200h300v-200h-400v-200h200v-200h-200v-200z" />
    <glyph glyph-name="Eacute" unicode="&#xc9;" 
d="M200 1400h100v-200h400v-200h-400v-200h200v-200h-200v-200h400v-200h-700v200h100v600h-100v200h200v200zM300 1600h200v-200h-200v200z" />
    <glyph glyph-name="Ecircumflex" unicode="&#xca;" 
d="M200 1600h200v-200h100v-200h200v-200h-400v-200h200v-200h-200v-200h400v-200h-700v200h100v600h-100v200h100v200h100v200zM200 1200h200v200h-200v-200z" />
    <glyph glyph-name="Edieresis" unicode="&#xcb;" 
d="M300 400h400v-200h-700v200h100v600h-100v200h700v-200h-400v-200h200v-200h-200v-200zM100 1600h200v-200h-200v200zM500 1600h200v-200h-200v200z" />
    <glyph glyph-name="Igrave" unicode="&#xcc;" 
d="M200 1600h200v-200h100v-200h200v-200h-200v-600h200v-200h-600v200h200v600h-200v200h300v200h-200v200z" />
    <glyph glyph-name="Iacute" unicode="&#xcd;" 
d="M100 1200h200v200h100v-200h300v-200h-200v-600h200v-200h-600v200h200v600h-200v200zM400 1600h200v-200h-200v200z" />
    <glyph glyph-name="Icircumflex" unicode="&#xce;" 
d="M300 1600h200v-200h100v-200h100v-200h-200v-600h200v-200h-600v200h200v600h-200v200h100v200h100v200zM300 1200h200v200h-200v-200z" />
    <glyph glyph-name="Idieresis" unicode="&#xcf;" 
d="M100 1200h600v-200h-200v-600h200v-200h-600v200h200v600h-200v200zM500 1600h200v-200h-200v200zM100 1600h200v-200h-200v200z" />
    <glyph glyph-name="Eth" unicode="&#xd0;" 
d="M0 1000h100v400h-100v200h500v-200h100v-200h100v-600h-100v-200h-100v-200h-500v200h100v400h-100v200zM300 400h100v200h100v600h-100v200h-100v-400h100v-200h-100v-400z" />
    <glyph glyph-name="Ntilde" unicode="&#xd1;" 
d="M300 800h100v-200h100v600h-100v200h-300v200h300v-200h300v-1200h-200v200h-100v200h-100v200h-100v-600h-200v1200h100v-200h100v-200h100v-200zM700 1600h100v-200h-100v200z" />
    <glyph glyph-name="Ograve" unicode="&#xd2;" 
d="M200 400h-100v200h-100v200h100v200h100v200h200v200h-200v200h200v-200h100v-200h100v-200h100v-200h100v-200h-100v-200h-100v-200h-400v200zM300 400h200v200h100v200h-100v200h-200v-200h-100v-200h100v-200z" />
    <glyph glyph-name="Oacute" unicode="&#xd3;" 
d="M200 400h-100v200h-100v200h100v200h100v200h100v200h100v-200h200v-200h100v-200h100v-200h-100v-200h-100v-200h-400v200zM300 400h200v200h100v200h-100v200h-200v-200h-100v-200h100v-200zM400 1600h200v-200h-200v200z" />
    <glyph glyph-name="Ocircumflex" unicode="&#xd4;" 
d="M300 1600h200v-200h100v-400h100v-200h100v-200h-100v-200h-100v-200h-400v200h-100v200h-100v200h100v200h100v400h100v200zM300 400h200v200h100v200h-100v200h-200v-200h-100v-200h100v-200zM300 1200h200v200h-200v-200z" />
    <glyph glyph-name="Otilde" unicode="&#xd5;" 
d="M100 1600h300v-200h300v-200h-100v-200h100v-200h100v-200h-100v-200h-100v-200h-400v200h-100v200h-100v200h100v200h100v200h200v200h-300v200zM300 400h200v200h100v200h-100v200h-200v-200h-100v-200h100v-200zM0 1400h100v-200h-100v200zM700 1600h100v-200h-100
v200z" />
    <glyph glyph-name="Odieresis" unicode="&#xd6;" 
d="M0 1600h200v-200h400v-200h100v-200h100v-400h-100v-200h-100v-200h-400v200h-100v200h-100v400h100v200h100v200h-200v200zM500 1200h-200v-200h-100v-400h100v-200h200v200h100v400h-100v200zM600 1600h200v-200h-200v200z" />
    <glyph glyph-name="multiply" unicode="&#xd7;" 
d="M100 600h100v200h100v200h-100v200h-100v200h200v-200h100v-200h100v200h100v200h200v-200h-100v-200h-100v-200h100v-200h100v-200h-200v200h-100v200h-100v-200h-100v-200h-200v200z" />
    <glyph glyph-name="Oslash" unicode="&#xd8;" 
d="M200 1600h400v-200h100v-200h100v-600h-100v-200h-100v-200h-400v200h-100v200h-100v600h100v200h100v200zM500 1000v-200h-100v-200h-100v-200h200v200h100v400h-100zM400 1200h100v200h-200v-200h-100v-400h100v200h100v200zM700 1600h100v-200h-100v200zM0 400h100
v-200h-100v200z" />
    <glyph glyph-name="Ugrave" unicode="&#xd9;" 
d="M200 1600h200v-200h100v-200h200v-1000h-500v200h-100v800h200v-800h200v800h-100v200h-200v200z" />
    <glyph glyph-name="Uacute" unicode="&#xda;" 
d="M100 1200h200v-800h200v800h200v-1000h-500v200h-100v800zM400 1600h200v-200h-200v200zM300 1400h100v-200h-100v200z" />
    <glyph glyph-name="Ucircumflex" unicode="&#xdb;" 
d="M300 1600h200v-200h100v-200h100v-1000h-500v200h-100v800h100v200h100v200zM300 400h200v1000h-200v-1000z" />
    <glyph glyph-name="Udieresis" unicode="&#xdc;" 
d="M100 1200h200v-800h200v800h200v-1000h-500v200h-100v800zM500 1600h200v-200h-200v200zM100 1600h200v-200h-200v200z" />
    <glyph glyph-name="Yacute" unicode="&#xdd;" 
d="M0 1200h200v-200h100v-200h200v200h100v200h200v-200h-100v-200h-100v-200h-100v-200h100v-200h-400v200h100v200h-100v200h-100v200h-100v200zM500 1600h200v-200h-200v200zM400 1400h100v-200h-100v200z" />
    <glyph glyph-name="Thorn" unicode="&#xde;" 
d="M300 200h100v-200h-400v200h100v1200h-100v200h400v-200h-100v-200h400v-200h100v-400h-100v-200h-400v-200zM600 1000h-300v-400h300v400z" />
    <glyph glyph-name="germandbls" unicode="&#xdf;" 
d="M400 400h100v400h-100v200h100v400h-200v-1400h-200v1600h500v-200h100v-400h-100v-200h100v-400h-100v-200h-200v200z" />
    <glyph glyph-name="agrave" unicode="&#xe0;" 
d="M600 400h-100v200h-200v200h200v200h-300v200h200v200h-200v200h200v-200h100v-200h100v-200h100v-600h100v-200h-200v200zM100 600h200v-200h200v-200h-300v200h-100v200z" />
    <glyph glyph-name="aacute" unicode="&#xe1;" 
d="M600 400h-100v200h-200v200h200v200h-300v200h100v200h100v-200h200v-200h100v-600h100v-200h-200v200zM100 600h200v-200h200v-200h-300v200h-100v200zM400 1600h200v-200h-200v200z" />
    <glyph glyph-name="acircumflex" unicode="&#xe2;" 
d="M300 1600h200v-200h100v-400h100v-600h100v-200h-200v200h-100v200h-200v200h200v200h-300v400h100v200zM100 600h200v-200h200v-200h-300v200h-100v200zM300 1200h200v200h-200v-200z" />
    <glyph glyph-name="atilde" unicode="&#xe3;" 
d="M100 1600h300v-200h300v-200h-100v-200h100v-600h100v-200h-200v200h-100v200h-200v200h200v200h-300v200h200v200h-300v200zM100 600h200v-200h200v-200h-300v200h-100v200zM0 1400h100v-200h-100v200zM700 1600h100v-200h-100v200z" />
    <glyph glyph-name="adieresis" unicode="&#xe4;" 
d="M600 400h-100v200h-200v200h200v200h-300v200h400v-200h100v-600h100v-200h-200v200zM100 600h200v-200h200v-200h-300v200h-100v200zM200 1600h200v-200h-200v200zM600 1600h200v-200h-200v200z" />
    <glyph glyph-name="aring" unicode="&#xe5;" 
d="M200 1600h400v-200h100v-200h-100v-200h100v-600h100v-200h-200v200h-100v200h-200v200h200v200h-300v200h-100v200h100v200zM100 600h200v-200h200v-200h-300v200h-100v200zM500 1400h-200v-200h200v200z" />
    <glyph glyph-name="ae" unicode="&#xe6;" 
d="M100 1200h600v-200h100v-400h-300v-200h300v-200h-300v200h-100v-200h-300v200h-100v200h100v200h200v200h-200v200zM300 600h-100v-200h100v200zM600 1000h-100v-200h100v200z" />
    <glyph glyph-name="ccedilla" unicode="&#xe7;" 
d="M100 1000h100v200h400v-200h100v-200h-200v200h-200v-600h200v200h200v-200h-100v-200h-200v-200h-100v200h-100v200h-100v600z" />
    <glyph glyph-name="egrave" unicode="&#xe8;" 
d="M200 1600h200v-200h100v-200h100v-200h100v-400h-400v-200h300v-200h-400v200h-100v600h100v200h200v200h-200v200zM500 1000h-200v-200h200v200z" />
    <glyph glyph-name="eacute" unicode="&#xe9;" 
d="M300 1400h100v-200h200v-200h100v-400h-400v-200h300v-200h-400v200h-100v600h100v200h100v200zM400 1600h200v-200h-200v200zM500 1000h-200v-200h200v200z" />
    <glyph glyph-name="ecircumflex" unicode="&#xea;" 
d="M300 1600h200v-200h100v-400h100v-400h-400v-200h300v-200h-400v200h-100v600h100v400h100v200zM500 1000h-200v-200h200v200zM300 1200h200v200h-200v-200z" />
    <glyph glyph-name="edieresis" unicode="&#xeb;" 
d="M200 1200h400v-200h100v-400h-400v-200h300v-200h-400v200h-100v600h100v200zM500 1600h200v-200h-200v200zM500 1000h-200v-200h200v200zM100 1600h200v-200h-200v200z" />
    <glyph glyph-name="igrave" unicode="&#xec;" 
d="M200 1600h200v-200h100v-1000h100v-200h-400v200h100v600h-100v200h200v200h-200v200z" />
    <glyph glyph-name="iacute" unicode="&#xed;" 
d="M200 1200h100v200h100v-200h100v-800h100v-200h-400v200h100v600h-100v200zM400 1600h200v-200h-200v200z" />
    <glyph glyph-name="icircumflex" unicode="&#xee;" 
d="M200 1400h100v-200h200v-800h100v-200h-400v200h100v600h-100v400zM300 1600h200v-200h100v-200h-100v200h-200v200z" />
    <glyph glyph-name="idieresis" unicode="&#xef;" 
d="M200 1200h300v-800h100v-200h-400v200h100v600h-100v200zM500 1600h200v-200h-200v200zM100 1600h200v-200h-200v200z" />
    <glyph glyph-name="eth" unicode="&#xf0;" 
d="M100 400h-100v400h100v200h200v200h-300v200h100v200h200v-200h300v-200h-100v-200h100v-200h100v-400h-100v-200h-500v200zM500 800h-300v-400h300v400z" />
    <glyph glyph-name="ntilde" unicode="&#xf1;" 
d="M100 200v1000h-100v200h100v-200h300v200h-300v200h300v-200h300v-200h-100v-200h100v-800h-200v800h-200v-800h-200zM700 1600h100v-200h-100v200z" />
    <glyph glyph-name="ograve" unicode="&#xf2;" 
d="M200 1600h200v-200h100v-200h100v-200h100v-600h-100v-200h-400v200h-100v600h100v200h200v200h-200v200zM500 1000h-200v-600h200v600z" />
    <glyph glyph-name="oacute" unicode="&#xf3;" 
d="M100 1000h100v200h100v200h100v-200h200v-200h100v-600h-100v-200h-400v200h-100v600zM500 1000h-200v-600h200v600zM400 1600h200v-200h-200v200z" />
    <glyph glyph-name="ocircumflex" unicode="&#xf4;" 
d="M300 1600h200v-200h100v-400h100v-600h-100v-200h-400v200h-100v600h100v400h100v200zM500 1000h-200v-600h200v600zM300 1200h200v200h-200v-200z" />
    <glyph glyph-name="otilde" unicode="&#xf5;" 
d="M100 1000h100v200h200v200h300v-200h-100v-200h100v-600h-100v-200h-400v200h-100v600zM500 1000h-200v-600h200v600zM100 1600h300v-200h-300v200zM0 1400h100v-200h-100v200zM700 1600h100v-200h-100v200z" />
    <glyph glyph-name="odieresis" unicode="&#xf6;" 
d="M100 1000h100v200h400v-200h100v-600h-100v-200h-400v200h-100v600zM500 1000h-200v-600h200v600zM100 1600h200v-200h-200v200zM500 1600h200v-200h-200v200z" />
    <glyph glyph-name="divide" unicode="&#xf7;" 
d="M100 1000h600v-200h-600v200zM300 600h200v-200h-200v200zM300 1400h200v-200h-200v200z" />
    <glyph glyph-name="oslash" unicode="&#xf8;" 
d="M200 1000v200h500v-200h100v-600h-100v-200h-500v200h-100v600h100zM500 1000h-200v-400h100v-200h200v400h-100v200zM700 1400h100v-200h-100v200zM100 200h100v-200h-100v200zM400 800h100v-200h-100v200z" />
    <glyph glyph-name="ugrave" unicode="&#xf9;" 
d="M200 1600h200v-200h100v-200h200v-800h100v-200h-200v200h-100v800h-100v200h-200v200zM100 1200h200v-800h200v-200h-300v200h-100v800z" />
    <glyph glyph-name="uacute" unicode="&#xfa;" 
d="M100 1200h200v-800h200v-200h-300v200h-100v800zM500 1200h200v-800h100v-200h-200v200h-100v800zM400 1600h200v-200h-200v200zM300 1400h100v-200h-100v200z" />
    <glyph glyph-name="ucircumflex" unicode="&#xfb;" 
d="M300 1600h200v-200h100v-200h100v-800h100v-200h-200v200h-100v1000h-200v200zM100 1200h100v200h100v-1000h200v-200h-300v200h-100v800z" />
    <glyph glyph-name="udieresis" unicode="&#xfc;" 
d="M100 1200h200v-800h200v-200h-300v200h-100v800zM500 1200h200v-800h100v-200h-200v200h-100v800zM100 1600h200v-200h-200v200zM500 1600h200v-200h-200v200z" />
    <glyph glyph-name="yacute" unicode="&#xfd;" 
d="M500 1200h200v-600h-100v-200h-100v-200h-100v-200h-300v200h200v200h-100v200h-100v600h200v-600h200v600zM400 1600h200v-200h-200v200zM300 1400h100v-200h-100v200z" />
    <glyph glyph-name="thorn" unicode="&#xfe;" 
d="M300 200h100v-200h-400v200h100v1200h-100v200h400v-200h-100v-200h300v-200h100v-400h-100v-200h-300v-200zM500 1000h-200v-400h200v400z" />
    <glyph glyph-name="ydieresis" unicode="&#xff;" 
d="M500 1200h200v-600h-100v-200h-100v-200h-100v-200h-300v200h200v200h-100v200h-100v600h200v-600h200v600zM100 1600h200v-200h-200v200zM500 1600h200v-200h-200v200z" />
    <glyph glyph-name="Reverse Line Feed" 
d="M100 1600h600v-1400h-600v1400zM300 400h200v1000h-200v-1000z" />
    <glyph glyph-name="Single-Shift Two" 
d="M100 1600h600v-1400h-600v1400zM300 400h200v1000h-200v-1000z" />
    <glyph glyph-name="Single-Shift Three" 
d="M100 1600h600v-1400h-600v1400zM300 400h200v1000h-200v-1000z" />
    <glyph glyph-name="Device Control String" 
d="M100 1600h600v-1400h-600v1400zM300 400h200v1000h-200v-1000z" />
    <glyph glyph-name="Operating System Command" 
d="M100 1600h600v-1400h-600v1400zM300 400h200v1000h-200v-1000z" />
    <glyph glyph-name="Private Message" 
d="M100 1600h600v-1400h-600v1400zM300 400h200v1000h-200v-1000z" />
    <glyph glyph-name="SOH" 
 />
    <glyph glyph-name="ETX" 
 />
    <glyph glyph-name="EOT" 
 />
    <glyph glyph-name="ENQ" 
 />
    <glyph glyph-name="ACK" 
 />
    <glyph glyph-name="BEL" 
 />
    <glyph glyph-name="BS" 
 />
    <glyph glyph-name="VT" 
 />
    <glyph glyph-name="FF" 
 />
    <glyph glyph-name="SO" 
 />
    <glyph glyph-name="SI" 
 />
    <glyph glyph-name="DLE" 
 />
    <glyph glyph-name="DC1" 
 />
    <glyph glyph-name="DC2" 
 />
    <glyph glyph-name="DC3" 
 />
    <glyph glyph-name="DC4" 
 />
    <glyph glyph-name="NAK" 
 />
    <glyph glyph-name="SYN" 
 />
    <glyph glyph-name="ETB" 
 />
    <glyph glyph-name="CAN" 
 />
    <glyph glyph-name="EM" 
 />
    <glyph glyph-name="SUB" 
 />
    <glyph glyph-name="ESC" 
 />
    <glyph glyph-name="FS" 
 />
    <glyph glyph-name="GS" 
 />
    <glyph glyph-name="RS" 
 />
    <glyph glyph-name="US" 
 />
    <glyph glyph-name="uni007F" 
d="M200 600h200v200h200v200h200v-400h-200v-200h-200v-200h-400v200h200v200zM0 1200h200v200h200v200h400v-200h-200v-200h-200v-200h-200v-200h-200v400z" />
    <glyph glyph-name="High Octet Preset" 
d="M100 1600h600v-1400h-600v1400zM300 400h200v1000h-200v-1000z" />
  </font>
</defs>
</svg>
